<svg style="position: absolute; width: 0; height: 0;" width="0" height="0" version="1.1" xmlns="http://www.w3.org/2000/svg" xmlns:xlink="http://www.w3.org/1999/xlink">
<defs>
<symbol id="icon-menu" viewBox="0 0 27 32">
<title>menu</title>
<path class="path1" d="M27.424 24v2.272q0 0.48-0.32 0.8t-0.832 0.352h-25.12q-0.48 0-0.8-0.352t-0.352-0.8v-2.272q0-0.48 0.352-0.8t0.8-0.352h25.12q0.48 0 0.832 0.352t0.32 0.8zM27.424 14.848v2.304q0 0.448-0.32 0.8t-0.832 0.32h-25.12q-0.48 0-0.8-0.32t-0.352-0.8v-2.304q0-0.448 0.352-0.8t0.8-0.32h25.12q0.48 0 0.832 0.32t0.32 0.8zM27.424 5.728v2.272q0 0.48-0.32 0.8t-0.832 0.352h-25.12q-0.48 0-0.8-0.352t-0.352-0.8v-2.272q0-0.48 0.352-0.832t0.8-0.32h25.12q0.48 0 0.832 0.32t0.32 0.832z"></path>
</symbol>
<symbol id="icon-right-big" viewBox="0 0 27 32">
<title>right-big</title>
<path class="path1" d="M26.272 17.152q0 0.96-0.64 1.6l-11.616 11.648q-0.704 0.64-1.632 0.64t-1.6-0.64l-1.344-1.344q-0.704-0.672-0.704-1.632t0.704-1.632l5.216-5.216h-12.576q-0.928 0-1.504-0.672t-0.576-1.632v-2.272q0-0.96 0.576-1.632t1.504-0.64h12.576l-5.216-5.248q-0.704-0.672-0.704-1.632t0.704-1.6l1.344-1.344q0.672-0.672 1.6-0.672t1.632 0.672l11.616 11.616q0.64 0.64 0.64 1.632z"></path>
</symbol>
<symbol id="icon-left-big" viewBox="0 0 27 32">
<title>left-big</title>
<path class="path1" d="M27.424 16v2.272q0 0.96-0.576 1.632t-1.504 0.672h-12.576l5.248 5.248q0.672 0.64 0.672 1.6t-0.672 1.6l-1.344 1.376q-0.672 0.64-1.632 0.64-0.928 0-1.6-0.64l-11.648-11.648q-0.64-0.672-0.64-1.6t0.64-1.632l11.648-11.616q0.672-0.672 1.6-0.672t1.632 0.672l1.344 1.344q0.672 0.672 0.672 1.6t-0.672 1.632l-5.248 5.248h12.576q0.928 0 1.504 0.64t0.576 1.632z"></path>
</symbol>
<symbol id="icon-twitter" viewBox="0 0 30 32">
<title>twitter</title>
<path class="path1" d="M28.928 7.296q-1.184 1.728-2.88 2.976 0 0.256 0 0.736 0 2.336-0.672 4.64t-2.048 4.448-3.296 3.744-4.608 2.624-5.792 0.96q-4.832 0-8.832-2.592 0.608 0.064 1.376 0.064 4.032 0 7.168-2.464-1.888-0.032-3.36-1.152t-2.048-2.848q0.608 0.096 1.088 0.096 0.768 0 1.536-0.192-2.016-0.416-3.328-1.984t-1.312-3.68v-0.064q1.216 0.672 2.624 0.736-1.184-0.8-1.888-2.048t-0.704-2.752q0-1.568 0.8-2.912 2.176 2.656 5.248 4.256t6.656 1.76q-0.16-0.672-0.16-1.312 0-2.4 1.696-4.064t4.064-1.696q2.528 0 4.224 1.824 1.952-0.384 3.648-1.408-0.64 2.048-2.528 3.2 1.664-0.192 3.328-0.896z"></path>
</symbol>
<symbol id="icon-pen" viewBox="0 0 32 32">
<title>pen</title>
<path class="path1" d="M24.192 0.128q3.072 0 5.312 2.24t2.24 5.344q0 0.864-0.288 1.984 0.8 2.496-0.992 4.288l-7.488 7.52q-1.184 1.184-2.944 1.184h-0.128l-3.616 3.616q-0.992 0.992-2.496 1.6-0.416 0.16-11.584 3.872-0.32 0.096-0.512 0.096-0.832 0-1.344-0.672t-0.256-1.504q3.712-11.168 3.872-11.552 0.608-1.536 1.664-2.56 13.216-13.216 13.28-13.248 2.272-2.208 5.28-2.208zM11.968 25.024l-5.056-5.088q-0.096 0.256-0.48 1.408t-0.704 1.984l2.848 2.848q1.408-0.448 3.392-1.152zM5.152 25.088q-0.288 0.8-0.864 2.496l2.528-0.832zM17.984 19.904q-0.48-0.736-0.416-1.6t0.704-1.536l6.144-6.144-4.544-4.576-11.904 11.936q-0.192 0.192-0.32 0.352l5.888 5.888q0.032-0.032 0.192-0.128t0.224-0.16zM28.096 11.616q0.576-0.544-0.032-1.12t-1.12-0.032l-7.52 7.488q-0.416 0.384-0.16 0.896t0.768 0.544q0.352 0 0.576-0.256zM25.568 9.472q1.248-1.248 2.72-0.768 0.128-0.48 0.128-0.992 0-1.728-1.248-2.976-1.312-1.248-3.104-1.184t-3.040 1.344z"></path>
</symbol>
<symbol id="icon-doc" viewBox="0 0 20 32">
<title>doc</title>
<path class="path1" d="M0 3.84h13.408l6.56 6.72v17.6h-19.968v-24.32zM2.88 6.72v18.56h14.208v-13.76h-5.152v-4.8h-9.056zM4.832 14.752h10.176v1.12h-10.176v-1.12zM4.832 17.952h10.176v1.12h-10.176v-1.12zM4.832 21.152h10.176v1.12h-10.176v-1.12z"></path>
</symbol>
<symbol id="icon-article" viewBox="0 0 22 32">
<title>article</title>
<path class="path1" d="M22.272 6.048v2.624h-22.272v-2.624h22.272zM16.448 11.808v2.624h-16.448v-2.624h16.448zM22.272 17.568v2.624h-22.272v-2.624h22.272zM16.448 23.328v2.624h-16.448v-2.624h16.448z"></path>
</symbol>
</defs>
</svg>
